<svg width="40" height="40" fill="none" xmlns="http://www.w3.org/2000/svg"><g filter="url(#filter0_d_4_347)"><rect x="4" y="2" width="32" height="32" rx="10" fill="#FF8484"/></g><g clip-path="url(#clip0_4_347)" fill="#fff"><path d="M22.207 15.797a.375.375 0 00-.375.375v7.081a.375.375 0 00.75 0v-7.081a.375.375 0 00-.375-.375zm-4.422 0a.375.375 0 00-.374.375v7.081a.375.375 0 00.75 0v-7.081a.375.375 0 00-.376-.375z"/><path d="M14.563 14.763v9.232c0 .546.2 1.058.55 1.426.348.369.832.578 1.338.579h7.09c.507 0 .991-.21 1.339-.579.35-.368.55-.88.55-1.426v-9.232a1.431 1.431 0 00-.368-2.815h-1.918v-.468A1.472 1.472 0 0021.66 10h-3.328a1.473 1.473 0 00-1.483 1.48v.468H14.93a1.432 1.432 0 00-.367 2.815zm8.978 10.488h-7.09c-.64 0-1.139-.55-1.139-1.256v-9.199h9.368v9.2c0 .704-.498 1.255-1.139 1.255zm-5.943-13.77a.721.721 0 01.735-.732h3.327a.722.722 0 01.734.731v.468h-4.796v-.468zm-2.668 1.217h10.132a.675.675 0 010 1.349H14.93a.675.675 0 010-1.35z"/><path d="M19.996 15.797a.375.375 0 00-.374.375v7.081a.375.375 0 10.749 0v-7.081a.375.375 0 00-.375-.375z"/></g><defs><clipPath id="clip0_4_347"><path fill="#fff" transform="translate(12 10)" d="M0 0h16v16H0z"/></clipPath><filter id="filter0_d_4_347" x="0" y="0" width="40" height="40" filterUnits="userSpaceOnUse" color-interpolation-filters="sRGB"><feFlood flood-opacity="0" result="BackgroundImageFix"/><feColorMatrix in="SourceAlpha" values="0 0 0 0 0 0 0 0 0 0 0 0 0 0 0 0 0 0 127 0" result="hardAlpha"/><feOffset dy="2"/><feGaussianBlur stdDeviation="2"/><feComposite in2="hardAlpha" operator="out"/><feColorMatrix values="0 0 0 0 0 0 0 0 0 0 0 0 0 0 0 0 0 0 0.1 0"/><feBlend in2="BackgroundImageFix" result="effect1_dropShadow_4_347"/><feBlend in="SourceGraphic" in2="effect1_dropShadow_4_347" result="shape"/></filter></defs></svg>