<svg width="32" height="32" viewBox="0 0 32 32" fill="none" xmlns="http://www.w3.org/2000/svg">
<rect width="32" height="32" rx="10" fill="#FF8484"/>
<g clip-path="url(#clip0_9066_2)">
<path d="M18.207 13.7968C18 13.7968 17.8323 13.9646 17.8323 14.1715V21.2535C17.8323 21.4603 18 21.6282 18.207 21.6282C18.4139 21.6282 18.5817 21.4603 18.5817 21.2535V14.1715C18.5817 13.9646 18.4139 13.7968 18.207 13.7968Z" fill="white"/>
<path d="M13.7855 13.7968C13.5785 13.7968 13.4108 13.9646 13.4108 14.1715V21.2535C13.4108 21.4603 13.5785 21.6282 13.7855 21.6282C13.9924 21.6282 14.1602 21.4603 14.1602 21.2535V14.1715C14.1602 13.9646 13.9924 13.7968 13.7855 13.7968Z" fill="white"/>
<path d="M10.563 12.7633V21.9953C10.563 22.5409 10.7631 23.0534 11.1126 23.421C11.4605 23.7898 11.9447 23.9991 12.4515 23.9999H19.541C20.0479 23.9991 20.5321 23.7898 20.8799 23.421C21.2294 23.0534 21.4295 22.5409 21.4295 21.9953V12.7633C22.1243 12.5789 22.5745 11.9076 22.4816 11.1947C22.3885 10.4818 21.7812 9.94861 21.0622 9.94846H19.1438V9.48008C19.146 9.0862 18.9902 8.70798 18.7114 8.42973C18.4326 8.15163 18.0538 7.99677 17.6599 7.99999H14.3326C13.9387 7.99677 13.5599 8.15163 13.2811 8.42973C13.0023 8.70798 12.8465 9.0862 12.8487 9.48008V9.94846H10.9302C10.2113 9.94861 9.60399 10.4818 9.5109 11.1947C9.41796 11.9076 9.86819 12.5789 10.563 12.7633ZM19.541 23.2505H12.4515C11.8108 23.2505 11.3124 22.7002 11.3124 21.9953V12.7962H20.6801V21.9953C20.6801 22.7002 20.1817 23.2505 19.541 23.2505ZM13.5981 9.48008C13.5956 9.28497 13.6723 9.09717 13.8108 8.95944C13.9491 8.82171 14.1374 8.74603 14.3326 8.7494H17.6599C17.8551 8.74603 18.0434 8.82171 18.1817 8.95944C18.3202 9.09703 18.3969 9.28497 18.3944 9.48008V9.94846H13.5981V9.48008ZM10.9302 10.6979H21.0622C21.4348 10.6979 21.7367 10.9998 21.7367 11.3723C21.7367 11.7449 21.4348 12.0468 21.0622 12.0468H10.9302C10.5577 12.0468 10.2558 11.7449 10.2558 11.3723C10.2558 10.9998 10.5577 10.6979 10.9302 10.6979Z" fill="white"/>
<path d="M15.9962 13.7968C15.7892 13.7968 15.6215 13.9646 15.6215 14.1715V21.2535C15.6215 21.4603 15.7892 21.6282 15.9962 21.6282C16.2031 21.6282 16.3709 21.4603 16.3709 21.2535V14.1715C16.3709 13.9646 16.2031 13.7968 15.9962 13.7968Z" fill="white"/>
</g>
<defs>
<clipPath id="clip0_9066_2">
<rect width="16" height="16" fill="white" transform="translate(8 8)"/>
</clipPath>
</defs>
</svg>
